<svg xmlns="http://www.w3.org/2000/svg" version="1.1" xmlns:xlink="http://www.w3.org/1999/xlink" xmlns:svgjs="http://svgjs.dev/svgjs" width="1500" height="1500" viewBox="0 0 1500 1500"><rect width="1500" height="1500" fill="#ffffff"></rect><g transform="matrix(0.6666666666666666,0,0,0.6666666666666666,249.39393939393938,435.9903225806451)"><svg viewBox="0 0 396 248" data-background-color="#ffffff" preserveAspectRatio="xMidYMid meet" height="939" width="1500" xmlns="http://www.w3.org/2000/svg" xmlns:xlink="http://www.w3.org/1999/xlink"><g id="tight-bounds" transform="matrix(1,0,0,1,0.2400000000000091,0.4000000000000057)"><svg viewBox="0 0 395.52 247.2" height="247.2" width="395.52"><g><svg></svg></g><g><svg viewBox="0 0 395.52 247.2" height="247.2" width="395.52"><g transform="matrix(1,0,0,1,75.54432,69.97004661994609)"><svg viewBox="0 0 244.43135999999998 107.25990676010781" height="107.25990676010781" width="244.43135999999998"><g><svg viewBox="0 0 244.43135999999998 107.25990676010781" height="107.25990676010781" width="244.43135999999998"><g><svg viewBox="0 0 244.43135999999998 107.25990676010781" height="107.25990676010781" width="244.43135999999998"><g id="textblocktransform"><svg viewBox="0 0 244.43135999999998 107.25990676010781" height="107.25990676010781" width="244.43135999999998" id="textblock"><g><svg viewBox="0 0 244.43135999999998 107.25990676010781" height="107.25990676010781" width="244.43135999999998"><g transform="matrix(1,0,0,1,0,0)"><svg width="244.43135999999998" viewBox="2.85 -29.85 92.74000000000001 40.7" height="107.25990676010781" data-palette-color="url(#a0fd91a9-4ed9-4a4e-b871-7b46a48890b6)"></svg></g></svg></g></svg></g></svg></g><g></g></svg></g></svg></g><g><path d="M104.468 44.649A122.216 122.216 0 0 1 291.052 44.649L281.379 44.649A112.543 112.543 0 0 0 114.141 44.649L104.468 44.649M104.468 202.551A122.216 122.216 0 0 0 291.052 202.551L281.379 202.551A112.543 112.543 0 0 1 114.141 202.551L104.468 202.551" fill="#000000" stroke="transparent" data-fill-palette-color="tertiary"></path></g></svg></g><defs></defs><mask id="a3292a74-519b-4b61-aeef-396ddc5c43ac"><g id="SvgjsG1732"><svg viewBox="0 0 395.52 247.2" height="247.2" width="395.52"><g><svg></svg></g><g><svg viewBox="0 0 395.52 247.2" height="247.2" width="395.52"><g transform="matrix(1,0,0,1,75.54432,69.97004661994609)"><svg viewBox="0 0 244.43135999999998 107.25990676010781" height="107.25990676010781" width="244.43135999999998"><g><svg viewBox="0 0 244.43135999999998 107.25990676010781" height="107.25990676010781" width="244.43135999999998"><g><svg viewBox="0 0 244.43135999999998 107.25990676010781" height="107.25990676010781" width="244.43135999999998"><g id="SvgjsG1731"><svg viewBox="0 0 244.43135999999998 107.25990676010781" height="107.25990676010781" width="244.43135999999998" id="SvgjsSvg1730"><g><svg viewBox="0 0 244.43135999999998 107.25990676010781" height="107.25990676010781" width="244.43135999999998"><g transform="matrix(1,0,0,1,0,0)"><svg width="244.43135999999998" viewBox="2.85 -29.85 92.74000000000001 40.7" height="107.25990676010781" data-palette-color="url(#a0fd91a9-4ed9-4a4e-b871-7b46a48890b6)"><path d="M15.05-27.15Q18.95-27.15 20.95-23.58 22.95-20 22.95-13.3L22.95-13.3Q22.95-6.8 20.68-3.03 18.4 0.75 14.35 0.75L14.35 0.75Q11.15 0.75 9-2.1L9-2.1 9 10.15 2.85 10.85 2.85-26.45 8.3-26.45 8.55-23.25Q9.85-25.25 11.45-26.2 13.05-27.15 15.05-27.15L15.05-27.15ZM12.7-3.95Q14.6-3.95 15.6-6.13 16.6-8.3 16.6-13.25L16.6-13.25Q16.6-18.45 15.75-20.5 14.9-22.55 13.1-22.55L13.1-22.55Q10.8-22.55 9-19.25L9-19.25 9-6.45Q10.6-3.95 12.7-3.95L12.7-3.95ZM36.95-27.15Q41.95-27.15 44.72-23.65 47.5-20.15 47.5-13.25L47.5-13.25Q47.5-6.65 44.7-2.95 41.9 0.75 36.95 0.75L36.95 0.75Q32 0.75 29.2-2.88 26.4-6.5 26.4-13.25L26.4-13.25Q26.4-19.95 29.2-23.55 32-27.15 36.95-27.15L36.95-27.15ZM36.95-22.5Q34.8-22.5 33.8-20.38 32.8-18.25 32.8-13.25L32.8-13.25Q32.8-8.2 33.8-6.08 34.8-3.95 36.95-3.95L36.95-3.95Q39.1-3.95 40.1-6.08 41.1-8.2 41.1-13.25L41.1-13.25Q41.1-18.3 40.1-20.4 39.1-22.5 36.95-22.5L36.95-22.5ZM64.4-27.15Q67.25-27.15 68.9-25.1 70.55-23.05 70.55-19.6L70.55-19.6 70.55 0 64.4 0 64.4-18.9Q64.4-20.8 63.87-21.63 63.35-22.45 62.35-22.45L62.35-22.45Q60.25-22.45 58.2-18.5L58.2-18.5 58.2 0 52.05 0 52.05-26.45 57.4-26.45 57.85-23Q59.2-25.1 60.72-26.13 62.25-27.15 64.4-27.15L64.4-27.15ZM94.04-29.85L95.59-25.1Q94.54-24.6 93.07-24.4 91.59-24.2 89.39-24.2L89.39-24.2Q91.49-23.2 92.52-21.53 93.54-19.85 93.54-17.4L93.54-17.4Q93.54-13.4 91.09-10.95 88.64-8.5 84.44-8.5L84.44-8.5Q83.19-8.5 81.89-8.9L81.89-8.9Q80.99-8.15 80.99-6.85L80.99-6.85Q80.99-5.85 81.54-5.35 82.09-4.85 83.59-4.85L83.59-4.85 86.39-4.85Q90.39-4.85 92.74-2.78 95.09-0.7 95.09 2.5L95.09 2.5Q95.09 6.3 92.17 8.58 89.24 10.85 83.84 10.85L83.84 10.85Q78.14 10.85 75.87 8.75 73.59 6.65 73.59 2.6L73.59 2.6 79.04 2.6Q79.04 4.75 80.04 5.65 81.04 6.55 83.89 6.55L83.89 6.55Q86.64 6.55 87.79 5.6 88.94 4.65 88.94 2.9L88.94 2.9Q88.94 1.2 87.99 0.4 87.04-0.4 85.04-0.4L85.04-0.4 83.14-0.4Q79.34-0.4 77.59-1.75 75.84-3.1 75.84-5.45L75.84-5.45Q75.84-6.8 76.57-8.03 77.29-9.25 78.54-10.2L78.54-10.2Q76.49-11.5 75.54-13.3 74.59-15.1 74.59-17.7L74.59-17.7Q74.59-22.05 77.19-24.58 79.79-27.1 84.19-27.1L84.19-27.1Q87.44-27.1 89.57-27.8 91.69-28.5 94.04-29.85L94.04-29.85ZM84.19-23Q82.44-23 81.54-21.75 80.64-20.5 80.64-17.8L80.64-17.8Q80.64-15.25 81.54-13.88 82.44-12.5 84.14-12.5L84.14-12.5Q85.89-12.5 86.74-13.73 87.59-14.95 87.59-17.85L87.59-17.85Q87.59-20.55 86.77-21.78 85.94-23 84.19-23L84.19-23Z" opacity="1" transform="matrix(1,0,0,1,0,0)" fill="white" class="wordmark-text-0" id="SvgjsPath1729"></path></svg></g></svg></g></svg></g></svg></g><g></g></svg></g></svg></g><g><path d="M104.468 44.649A122.216 122.216 0 0 1 291.052 44.649L281.379 44.649A112.543 112.543 0 0 0 114.141 44.649L104.468 44.649M104.468 202.551A122.216 122.216 0 0 0 291.052 202.551L281.379 202.551A112.543 112.543 0 0 1 114.141 202.551L104.468 202.551" fill="black" stroke="transparent"></path></g></svg></g><defs><mask></mask></defs></svg><rect width="395.52" height="247.2" fill="black" stroke="none" visibility="hidden"></rect></g></mask><linearGradient x1="0" x2="1" y1="0.578" y2="0.595" id="a0fd91a9-4ed9-4a4e-b871-7b46a48890b6"><stop stop-color="#dede50" offset="0"></stop><stop stop-color="#559c49" offset="1"></stop></linearGradient><rect width="395.52" height="247.2" fill="url(#a0fd91a9-4ed9-4a4e-b871-7b46a48890b6)" mask="url(#a3292a74-519b-4b61-aeef-396ddc5c43ac)" data-fill-palette-color="primary"></rect></svg><rect width="395.52" height="247.2" fill="none" stroke="none" visibility="hidden"></rect></g></svg></g></svg>